<!-- prettier-ignore -->
<svg xmlns="http://www.w3.org/2000/svg" viewBox="0 0 32 32"><path fill="#18181B" d="M8 0h16a8 8 0 0 1 8 8v16a8 8 0 0 1-8 8H8a8 8 0 0 1-8-8V8a8 8 0 0 1 8-8Z"/><path fill="#f4f4f5" d="M12.976 15.6a2.57 2.57 0 0 1 1.824 2.672 3.068 3.068 0 0 1-1.008 2.464 4.435 4.435 0 0 1-2.96.864H6.72V10.4h3.936a4.518 4.518 0 0 1 2.744.7 2.354 2.354 0 0 1 .936 2 2.691 2.691 0 0 1-1.36 2.5Zm-1.248-1.92a1.1 1.1 0 0 0-.272-.84 1.342 1.342 0 0 0-.912-.248H9.136v2.256h1.408a1.285 1.285 0 0 0 .912-.264 1.229 1.229 0 0 0 .272-.904Zm-.9 5.728a1.526 1.526 0 0 0 1.064-.288 1.355 1.355 0 0 0 .3-1.008 1.529 1.529 0 0 0-.3-1.08 1.444 1.444 0 0 0-1.06-.312h-1.7v2.688Zm11.62 2.192-2.528-4.72h-.752v4.72h-2.5V10.4h2.5v4.3h.752l2.4-4.3h2.816l-3.3 5.408 3.428 5.792Z"/></svg>
